<svg xmlns="http://www.w3.org/2000/svg" width="124.738" height="124.324" viewBox="0 0 124.738 124.324">
  <g id="change1_1" transform="translate(-376.555 -373.064)">
    <path id="Path_14" data-name="Path 14" d="M517.908,1149.958l-10.634-18.619c-.01.025-.015.054-.025.079-.01-.025-.015-.054-.025-.079l-10.634,18.619-10.634,18.416h.46c6.893-1.65,11.839-4.1,16.825-12.64a41.993,41.993,0,0,0,4-8.924,41.741,41.741,0,0,0,4,8.924c4.986,8.544,9.932,10.99,16.825,12.64h.46Z" transform="translate(-96.808 -670.986)" fill="#fff"/>
    <path id="Path_15" data-name="Path 15" d="M397.05,980.153l11.844-21.406a1.744,1.744,0,0,1,3.049,0l11.844,21.406,12.3,22.231h9.517l-17.6-30.473-15.59-27a2.314,2.314,0,0,0-4.008,0l-15.59,27L376.8,999.671a1.808,1.808,0,0,0,1.566,2.713h6.384Z" transform="translate(0 -504.996)" fill="#fff"/>
    <path id="Path_16" data-name="Path 16" d="M814.535,981.527l-30.641-56.8a2.072,2.072,0,0,0-1.853-1.147H732.874a2.071,2.071,0,0,0-1.794,3.108l15.8,27.365,16.993,29.436a2.075,2.075,0,0,0,1.794,1.038h47.012A2.071,2.071,0,0,0,814.535,981.527ZM786.523,959.8h-17.26a.989.989,0,0,1-.885-.548l-10.229-20.388a.992.992,0,0,1,.885-1.438h17.26a.989.989,0,0,1,.885.548l10.229,20.388A.992.992,0,0,1,786.523,959.8Z" transform="translate(-313.465 -487.144)" fill="#fff"/>
    <path id="Path_17" data-name="Path 17" d="M1215.6,855.072v9.448l9.067,15.872V855.072Z" transform="translate(-742.459 -426.522)" fill="#fff"/>
    <path id="Path_18" data-name="Path 18" d="M1085.592,409.8l-.474-.647h8.618a.83.83,0,0,0,.637-1.364l-9.927-11.879-1.492-1.784a.83.83,0,0,1,.637-1.364h4.314a.832.832,0,0,0,.647-1.354l-7.041-8.741-7.486-9.29a.829.829,0,0,0-1.295,0l-7.486,9.29-7.041,8.741a.832.832,0,0,0,.647,1.354h4.314a.83.83,0,0,1,.638,1.364l-1.492,1.784-9.928,11.879a.83.83,0,0,0,.638,1.364h8.618l-.474.647-11.246,15.4a.83.83,0,0,0,.672,1.319h45.569a.83.83,0,0,0,.672-1.319Z" transform="translate(-595.704)" fill="#fff"/>
    <path id="Path_19" data-name="Path 19" d="M663.684,525.3l.39-.534h-7.051a.68.68,0,0,1-.524-1.117l8.124-9.72,1.22-1.463a.681.681,0,0,0-.524-1.117h-3.533a.679.679,0,0,1-.529-1.107l5.762-7.155,6.127-7.6a.681.681,0,0,1,1.057,0l6.127,7.6,5.762,7.155a.68.68,0,0,1-.529,1.107h-3.533a.681.681,0,0,0-.524,1.117l1.221,1.463,8.124,9.72a.68.68,0,0,1-.524,1.117h-7.051l.39.534,9.2,12.6a.682.682,0,0,1-.548,1.082H655.032a.679.679,0,0,1-.548-1.082Z" transform="translate(-245.816 -108.102)" fill="#fff"/>
  </g>
</svg>
